<?xml version="1.0" encoding="utf-8"?>
<!-- Generator: Adobe Illustrator 19.2.1, SVG Export Plug-In . SVG Version: 6.00 Build 0)  -->
<svg version="1.1" id="Layer_1" xmlns="http://www.w3.org/2000/svg" xmlns:xlink="http://www.w3.org/1999/xlink" x="0px" y="0px"
	 viewBox="0 0 18 11.9" style="enable-background:new 0 0 18 11.9;" xml:space="preserve">
<style type="text/css">
	.st0{fill:#5E727C;}
</style>
<title>Untitled-1</title>
<path class="st0" d="M18,6c0,0.6-0.4,1-1,1H3.4l3.2,3.2c0.4,0.4,0.4,1,0,1.4c0,0,0,0,0,0c-0.4,0.4-1,0.4-1.4,0c0,0,0,0,0,0l-5-5
	C0.2,6.6,0.1,6.5,0.1,6.4c0,0,0-0.1,0-0.1c0,0,0,0,0-0.1l0,0C0,6.1,0,6.1,0,6c0-0.1,0-0.1,0-0.2c0-0.2,0.1-0.4,0.3-0.6l5-5
	c0.4-0.4,1-0.4,1.4,0c0,0,0,0,0,0C6.9,0.4,7,0.7,7,1c0,0.3-0.1,0.5-0.3,0.7L3.4,5H17C17.6,5,18,5.4,18,6z"/>
</svg>
