<?xml version="1.0" encoding="utf-8"?>
<!-- Generator: Adobe Illustrator 19.2.1, SVG Export Plug-In . SVG Version: 6.00 Build 0)  -->
<svg version="1.1" id="Layer_1" xmlns="http://www.w3.org/2000/svg" xmlns:xlink="http://www.w3.org/1999/xlink" x="0px" y="0px"
	 viewBox="0 0 8 8" style="enable-background:new 0 0 8 8;" xml:space="preserve">
<style type="text/css">
	.st0{fill:#B3C3CE;}
</style>
<title>close-light</title>
<path class="st0" d="M7.7,6.3c0.4,0.4,0.4,1,0,1.4c0,0,0,0,0,0c-0.4,0.4-1,0.4-1.4,0c0,0,0,0,0,0L4,5.4L1.7,7.7
	c-0.4,0.4-1,0.4-1.4,0c0,0,0,0,0,0c-0.4-0.4-0.4-1,0-1.4c0,0,0,0,0,0L2.6,4L0.3,1.7c-0.4-0.4-0.4-1,0-1.4s1-0.4,1.4,0L4,2.6l2.3-2.3
	c0.4-0.4,1-0.4,1.4,0s0.4,1,0,1.4L5.4,4L7.7,6.3z"/>
</svg>
