<?xml version="1.0" encoding="utf-8"?>
<!-- Generator: Adobe Illustrator 20.0.0, SVG Export Plug-In . SVG Version: 6.00 Build 0)  -->
<svg version="1.1" id="Layer_1" xmlns="http://www.w3.org/2000/svg" xmlns:xlink="http://www.w3.org/1999/xlink" x="0px" y="0px"
	 viewBox="0 0 50 50" style="enable-background:new 0 0 50 50;" xml:space="preserve">
<style type="text/css">
	.st0{fill:#FFFFFF;}
	.st1{fill:none;}
</style>
<g>
	<g>
		<path class="st0" d="M34.5,25.3c0,0,0,0.1,0,0.1c0,0.1-0.1,0.2-0.2,0.3l-6,6C28,31.9,27.8,32,27.5,32c-0.3,0-0.5-0.1-0.7-0.3
			c-0.4-0.4-0.4-1,0-1.4l4.3-4.3H16.4c-0.5,0-1-0.5-1-1s0.5-1,1-1h14.7l-4.3-4.3c-0.4-0.4-0.4-1,0-1.4s1-0.4,1.4,0l6,6
			c0.1,0.1,0.2,0.2,0.2,0.3c0,0,0,0.1,0,0.1C34.6,24.9,34.6,25.1,34.5,25.3z"/>
	</g>
</g>
<rect class="st1" width="50" height="50"/>
</svg>
