<?xml version="1.0" encoding="utf-8"?>
<!-- Generator: Adobe Illustrator 20.0.0, SVG Export Plug-In . SVG Version: 6.00 Build 0)  -->
<svg version="1.1" id="Layer_1" xmlns="http://www.w3.org/2000/svg" xmlns:xlink="http://www.w3.org/1999/xlink" x="0px" y="0px"
	 viewBox="0 0 50 50" style="enable-background:new 0 0 50 50;" xml:space="preserve">
<style type="text/css">
	.st0{fill:#FFFFFF;}
	.st1{fill:none;}
</style>
<g>
	<g>
		<path class="st0" d="M15.5,24.7c0,0,0-0.1,0-0.1c0-0.1,0.1-0.2,0.2-0.3l6-6c0.2-0.2,0.5-0.3,0.7-0.3c0.3,0,0.5,0.1,0.7,0.3
			c0.4,0.4,0.4,1,0,1.4L18.8,24h14.7c0.5,0,1,0.5,1,1s-0.5,1-1,1H18.8l4.3,4.3c0.4,0.4,0.4,1,0,1.4s-1,0.4-1.4,0l-6-6
			c-0.1-0.1-0.2-0.2-0.2-0.3c0,0,0-0.1,0-0.1C15.4,25.1,15.4,24.9,15.5,24.7z"/>
	</g>
</g>
<rect class="st1" width="50" height="50"/>
</svg>
