<svg id="Layer_1" data-name="Layer 1" xmlns="http://www.w3.org/2000/svg" viewBox="0 0 50 50"><title>Untitled-1</title><path d="M4.41,38.15a1.19,1.19,0,0,1-1-.59,25,25,0,0,1-.17-24.83,1.19,1.19,0,1,1,2.07,1.17,22.64,22.64,0,0,0,.15,22.45A1.19,1.19,0,0,1,4.41,38.15Z" transform="translate(0 0.01)" style="fill:#2a383c"/><path d="M45.5,38.32a1.18,1.18,0,0,1-.6-0.17,1.19,1.19,0,0,1-.42-1.63,22.69,22.69,0,0,0,.15-22.78,1.19,1.19,0,1,1,2.07-1.18,25.07,25.07,0,0,1-.16,25.18A1.19,1.19,0,0,1,45.5,38.32Z" transform="translate(0 0.01)" style="fill:#2a383c"/><path d="M12.86,5.68a1.19,1.19,0,0,1-.61-2.22A25.07,25.07,0,0,1,37.43,3.3a1.19,1.19,0,0,1-1.18,2.07,22.68,22.68,0,0,0-22.78.15A1.19,1.19,0,0,1,12.86,5.68Z" transform="translate(0 0.01)" style="fill:#2a383c"/><path d="M25,50a24.9,24.9,0,0,1-12.55-3.38,1.19,1.19,0,1,1,1.2-2.06,22.64,22.64,0,0,0,22.46.15,1.19,1.19,0,0,1,1.17,2.07A25,25,0,0,1,25,50Z" transform="translate(0 0.01)" style="fill:#2a383c"/><path d="M38.32,25.43v4.73A1.2,1.2,0,0,1,36,30.4a6.2,6.2,0,0,1-3.3,1,6.35,6.35,0,1,1,4.76-10.54,1.17,1.17,0,0,1-.1,1.67,1.18,1.18,0,0,1-1.68-.1,4,4,0,1,0-3,6.59,3.94,3.94,0,0,0,3.29-1.76V26.63H33.08a1.19,1.19,0,0,1,0-2.38h4A1.2,1.2,0,0,1,38.32,25.43Z" transform="translate(0 0.01)" style="fill:#2a383c"/><path d="M26.11,19.85A1.2,1.2,0,0,1,24.92,21H22.24v9.13a1.19,1.19,0,0,1-2.38,0V21H17.17a1.19,1.19,0,1,1,0-2.38h7.75A1.2,1.2,0,0,1,26.11,19.85Z" transform="translate(0 0.01)" style="fill:#2a383c"/><path d="M12.87,31.36a1.19,1.19,0,0,1-1.19-1.19V19.85a1.19,1.19,0,1,1,2.38,0V30.17A1.19,1.19,0,0,1,12.87,31.36Z" transform="translate(0 0.01)" style="fill:#2a383c"/></svg>