<svg id="Layer_1" data-name="Layer 1" xmlns="http://www.w3.org/2000/svg" viewBox="0 0 18 18"><title>Untitled-2</title><path d="M18,9.69V8.31A1.11,1.11,0,0,0,16.89,7.2H16.82a1.11,1.11,0,0,1-1-.74Q15.69,6.21,15.58,6a1.1,1.1,0,0,1,.23-1.23l0,0a1.11,1.11,0,0,0,0-1.57l-1-1a1.11,1.11,0,0,0-1.57,0h0a1.1,1.1,0,0,1-1.25.22l-0.53-.22a1.1,1.1,0,0,1-.72-1h0A1.11,1.11,0,0,0,9.69,0H8.31A1.11,1.11,0,0,0,7.2,1.11h0a1.1,1.1,0,0,1-.72,1l-0.53.22A1.1,1.1,0,0,1,4.7,2.15h0a1.11,1.11,0,0,0-1.57,0l-1,1a1.11,1.11,0,0,0,0,1.57l0,0A1.1,1.1,0,0,1,2.42,6q-0.11.24-.2,0.49a1.11,1.11,0,0,1-1,.74H1.11A1.11,1.11,0,0,0,0,8.31V9.69A1.11,1.11,0,0,0,1.11,10.8H1.27a1.11,1.11,0,0,1,1,.71q0.08,0.21.18,0.42a1.11,1.11,0,0,1-.21,1.26l-0.12.12a1.11,1.11,0,0,0,0,1.57l1,1a1.11,1.11,0,0,0,1.57,0l0.16-.16a1.08,1.08,0,0,1,1.2-.24l0.45,0.18a1.09,1.09,0,0,1,.69,1v0.24A1.11,1.11,0,0,0,8.31,18H9.69a1.11,1.11,0,0,0,1.11-1.11V16.65a1.09,1.09,0,0,1,.69-1l0.45-.18a1.08,1.08,0,0,1,1.2.24l0.16,0.16a1.11,1.11,0,0,0,1.57,0l1-1a1.11,1.11,0,0,0,0-1.57l-0.12-.12a1.11,1.11,0,0,1-.21-1.26q0.1-.21.18-0.42a1.11,1.11,0,0,1,1-.71h0.16A1.11,1.11,0,0,0,18,9.69Zm-9,3A3.68,3.68,0,1,1,12.68,9,3.69,3.69,0,0,1,9,12.68Z" style="fill:#fff"/></svg>